<?xml version="1.0" encoding="UTF-8"?>
<svg width="216px" height="27px" viewBox="0 0 216 27" version="1.1" xmlns="http://www.w3.org/2000/svg" xmlns:xlink="http://www.w3.org/1999/xlink">
    <!-- Generator: sketchtool 41.2 (35397) - http://www.bohemiancoding.com/sketch -->
    <title>2C7738C8-6299-4CA5-96C6-0F2DD73CF7C8</title>
    <desc>Created with sketchtool.</desc>
    <defs></defs>
    <g id="Site" stroke="none" stroke-width="1" fill="none" fill-rule="evenodd">
        <g id="Home" transform="translate(-707.000000, -736.000000)">
            <g id="comparison" transform="translate(64.000000, 616.000000)">
                <g id="stripe_gramercy_logo" transform="translate(643.000000, 120.000000)">
                    <text id="title" font-family="OpenSans, Open Sans" font-size="20" font-weight="normal" letter-spacing="-0.0666666701" fill="#555555">
                        <tspan x="71.3155599" y="21">+</tspan>
                    </text>
                    <g id="gramercy_logo" transform="translate(90.000000, 0.000000)" fill="#3C78D8">
                        <path d="M20.5058983,18.3714886 C20.5058983,19.9476403 21.7011573,20.6086071 22.3623645,20.7865597 L22.3623645,20.8628252 C22.108054,21.015356 20.8873639,21.7017446 20.8873639,23.2270527 C20.8873639,24.9048916 22.3623645,26.7352613 25.7701243,26.7352613 C28.8472806,26.7352613 31.0343504,24.726939 31.0343504,22.6169295 C31.0343504,20.4052327 29.3559015,19.3629389 27.2196938,19.3629389 L23.5576235,19.3629389 C22.6166749,19.3629389 22.1589161,18.7528156 22.1589161,18.1172706 C22.1589161,17.1003985 23.2778821,16.5919625 23.2778821,16.5919625 C23.2778821,16.5919625 24.0662444,17.2275075 25.6938312,17.2275075 C28.3132287,17.2275075 29.9662466,15.2191852 29.9662466,12.9058013 C29.9662466,10.8974789 28.8218496,10.0585595 28.8218496,10.0585595 L30.195126,9.77891967 C30.3731433,9.75349787 30.4748674,9.52470165 30.4748674,9.34674904 L30.4748674,8.91457842 C30.4748674,8.6349386 30.2714191,8.43156419 29.9916776,8.43156419 L25.6938312,8.43156419 C23.0490027,8.43156419 21.3959848,10.5415737 21.3959848,12.9058013 C21.3959848,14.4056876 22.2097782,15.4479814 22.2097782,15.4479814 C22.2097782,15.4479814 20.5058983,16.4394317 20.5058983,18.3714886 L20.5058983,18.3714886 Z M25.7192623,15.7021994 C24.1679686,15.7021994 23.0490027,14.5327966 23.0490027,12.8549577 C23.0490027,11.1771188 24.1679686,10.0077159 25.7192623,10.0077159 C27.2451249,10.0077159 28.2623666,11.1771188 28.2623666,12.8549577 C28.2623666,14.5327966 27.2451249,15.7021994 25.7192623,15.7021994 L25.7192623,15.7021994 Z M22.692968,22.9728347 C22.692968,21.4729484 24.396848,21.015356 24.396848,21.015356 L27.2196938,21.015356 C28.9998669,21.015356 29.1524532,22.3372896 29.1524532,22.6677731 C29.1524532,24.1422376 27.4231422,25.0828442 25.7446933,25.0828442 C24.0153823,25.0828442 22.692968,24.1930812 22.692968,22.9728347 L22.692968,22.9728347 Z M35.0948404,18.3714886 C35.0948404,18.6257066 35.3237198,18.8545028 35.5780302,18.8545028 L36.3663926,18.8545028 C36.620703,18.8545028 36.8495824,18.6257066 36.8495824,18.3714886 L36.8495824,11.5838676 C36.8495824,11.5838676 37.6888069,10.1602467 39.6215662,10.1602467 C40.0030319,10.1602467 40.3844975,10.2619339 40.6133769,10.3636211 C40.8676874,10.4653083 41.0965667,10.4653083 41.223722,10.1348249 L41.5288945,9.27048364 C41.7832049,8.55867319 40.5116527,8.43156419 39.7487214,8.43156419 C37.6379448,8.43156419 36.6969962,9.77891967 36.6969962,9.77891967 L36.4935478,9.04168742 C36.4426857,8.81289121 36.2646684,8.6857822 36.0612201,8.6857822 L35.5780302,8.6857822 C35.3237198,8.6857822 35.0948404,8.91457842 35.0948404,9.16879643 L35.0948404,18.3714886 Z M44.7501601,15.7784648 C44.7501601,17.812209 46.0980054,19.1087208 47.8781784,19.1087208 C49.4549032,19.1087208 50.4975759,18.320645 51.0316279,17.7867872 L51.2350762,18.4731758 C51.3113694,18.701972 51.3876625,18.8545028 51.667404,18.8545028 L52.1505938,18.8545028 C52.4049042,18.8545028 52.6337836,18.6257066 52.6337836,18.3714886 L52.6337836,12.7278487 C52.6337836,9.75349787 51.9980075,8.43156419 49.4040411,8.43156419 C47.4967128,8.43156419 46.0217122,9.01626562 45.869126,9.09253103 C45.6402466,9.19421823 45.4876603,9.34674904 45.5893845,9.65181066 L45.7928328,10.2873557 C45.869126,10.5161519 46.0217122,10.6432609 46.2760227,10.5415737 C46.7337815,10.3636211 47.9290405,9.98229408 49.3277479,9.98229408 C50.7773174,9.98229408 51.0061968,10.8466353 50.9807658,12.7278487 C50.9807658,12.7278487 49.9126619,12.3973652 48.8191271,12.3973652 C46.1997295,12.3973652 44.7501601,13.8464079 44.7501601,15.7784648 L44.7501601,15.7784648 Z M46.3777469,15.7784648 C46.3777469,14.4565312 47.3949886,13.7447207 48.8191271,13.7447207 C49.938093,13.7447207 50.6501622,13.9735169 50.9553347,14.1514695 L50.9553347,16.1597919 C50.523007,16.7953369 49.4294721,17.5834127 48.1579199,17.5834127 C47.064385,17.5834127 46.3777469,16.7953369 46.3777469,15.7784648 L46.3777469,15.7784648 Z M58.06755,18.3714886 C58.06755,18.6257066 58.2964294,18.8545028 58.5507398,18.8545028 L59.3391022,18.8545028 C59.5934126,18.8545028 59.822292,18.6257066 59.822292,18.3714886 L59.822292,11.5838676 C59.822292,11.5838676 60.9158269,10.1348249 62.721431,10.1348249 C64.2727247,10.1348249 65.1373802,11.0754315 65.1373802,13.0074885 L65.1373802,18.3714886 C65.1373802,18.6257066 65.3662596,18.8545028 65.62057,18.8545028 L66.4343634,18.8545028 C66.6886738,18.8545028 66.9175532,18.6257066 66.9175532,18.3714886 L66.9175532,13.0074885 C66.9175532,12.4736306 66.8666911,11.9906164 66.790398,11.5584458 C67.1464326,11.2279624 68.2399675,10.1348249 69.8929854,10.1348249 C71.3679859,10.1348249 72.1817793,11.1008534 72.1817793,13.0074885 L72.1817793,18.3714886 C72.1817793,18.6257066 72.4106587,18.8545028 72.6649691,18.8545028 L73.4787625,18.8545028 C73.733073,18.8545028 73.9619524,18.6257066 73.9619524,18.3714886 L73.9619524,13.0074885 C73.9619524,10.3636211 72.9701417,8.43156419 70.0201406,8.43156419 C67.9856571,8.43156419 66.3580703,9.98229408 66.2309151,10.0839813 C65.5697079,9.01626562 64.476173,8.43156419 62.9757414,8.43156419 C60.8649648,8.43156419 59.6697058,9.77891967 59.6697058,9.77891967 L59.4408264,8.99084382 C59.3899643,8.78746941 59.2628091,8.6857822 59.0339297,8.6857822 L58.5507398,8.6857822 C58.2964294,8.6857822 58.06755,8.91457842 58.06755,9.16879643 L58.06755,18.3714886 Z M78.6073564,13.7701425 C78.6073564,16.6936497 80.5146847,19.1087208 83.591841,19.1087208 C85.346583,19.1087208 86.7198593,18.4223322 87.3302044,17.939318 C87.7116701,17.6596782 87.6099459,17.5071473 87.4319286,17.2783511 C87.2793423,17.0749767 87.1521871,16.8970241 86.9996008,16.6936497 C86.7961525,16.4140099 86.6435662,16.5411189 86.2875316,16.7444933 C85.7026176,17.1003985 84.8379621,17.5071473 83.7698583,17.5071473 C81.9642542,17.5071473 80.4638226,15.9055738 80.3620984,14.2023131 L87.686239,14.2023131 C87.9151184,14.2023131 88.1185668,14.0243605 88.1439978,13.7701425 C88.1694288,13.5921899 88.1948599,13.2617065 88.1948599,13.0837539 C88.1948599,10.4144647 86.2621006,8.43156419 83.591841,8.43156419 C80.5146847,8.43156419 78.6073564,10.8974789 78.6073564,13.7701425 L78.6073564,13.7701425 Z M80.3875294,12.7786923 C80.5655467,11.2025406 81.887961,9.98229408 83.591841,9.98229408 C85.1431346,9.98229408 86.3638247,11.3042278 86.4401179,12.7786923 L80.3875294,12.7786923 Z M92.8656949,18.3714886 C92.8656949,18.6257066 93.0945743,18.8545028 93.3488848,18.8545028 L94.1372471,18.8545028 C94.3915576,18.8545028 94.620437,18.6257066 94.620437,18.3714886 L94.620437,11.5838676 C94.620437,11.5838676 95.4596614,10.1602467 97.3924207,10.1602467 C97.7738864,10.1602467 98.1553521,10.2619339 98.3842314,10.3636211 C98.6385419,10.4653083 98.8674213,10.4653083 98.9945765,10.1348249 L99.299749,9.27048364 C99.5540595,8.55867319 98.2825073,8.43156419 97.519576,8.43156419 C95.4087993,8.43156419 94.4678507,9.77891967 94.4678507,9.77891967 L94.2644024,9.04168742 C94.2135403,8.81289121 94.035523,8.6857822 93.8320746,8.6857822 L93.3488848,8.6857822 C93.0945743,8.6857822 92.8656949,8.91457842 92.8656949,9.16879643 L92.8656949,18.3714886 Z M102.393859,13.7955643 C102.393859,16.8461805 104.784377,19.1087208 107.607223,19.1087208 C109.336534,19.1087208 110.735242,18.193536 111.498173,16.9732895 C111.650759,16.7190715 111.574466,16.4394317 111.320156,16.2614791 L111.040414,16.0581047 C110.760673,15.8547302 110.582655,15.8038866 110.277483,16.1089483 C109.692569,16.6682279 109.107655,17.4308819 107.581792,17.4308819 C105.674464,17.4308819 104.224895,15.8038866 104.224895,13.7701425 C104.224895,11.7363984 105.699895,10.1602467 107.607223,10.1602467 C108.599034,10.1602467 109.438258,10.6432609 109.946879,11.2279624 C110.175759,11.4313368 110.302914,11.6855548 110.68438,11.3296496 L111.167569,10.9229007 C111.396449,10.7449481 111.447311,10.4398865 111.269294,10.2110903 C110.353776,9.04168742 109.158517,8.43156419 107.632654,8.43156419 C104.860671,8.43156419 102.393859,10.7957917 102.393859,13.7955643 L102.393859,13.7955643 Z M119.551337,18.829081 L116.296163,25.8454983 C116.118146,26.2014035 116.321594,26.4810433 116.70306,26.4810433 L117.644009,26.4810433 C117.822026,26.4810433 118.000043,26.3285125 118.076336,26.1759817 L125.883667,9.27048364 C126.061684,8.94000022 125.883667,8.6857822 125.502201,8.6857822 L124.535822,8.6857822 C124.357804,8.6857822 124.179787,8.81289121 124.103494,8.96542202 L120.543148,16.7444933 L120.517717,16.7444933 L116.753922,8.96542202 C116.677629,8.81289121 116.525043,8.6857822 116.321594,8.6857822 L115.202628,8.6857822 C114.821163,8.6857822 114.668577,8.91457842 114.821163,9.24506184 L119.551337,18.829081 Z" id="-g-logo"></path>
                        <path d="M2.15585274,5.77813585 C3.00491347,3.99855722 4.67069829,1.68729372 5.53233861,1.34340044 C6.17672561,1.08621614 6.77667739,1.59297166 6.70934679,2.26603146 C6.67440803,2.61529133 6.92931856,2.92673556 7.2787054,2.96166163 C7.62809225,2.9965877 7.93964971,2.74176981 7.97458848,2.39250994 C8.13316182,0.807356496 6.6291604,-0.463013958 5.06084966,0.162921842 C3.79223281,0.669245421 1.99455923,3.16350355 1.00812694,5.23100447 C0.178219914,6.97085766 -0.10022794,10.5310624 0.0309447917,14.2153828 C0.043433591,14.5661625 0.338024314,14.8404052 0.688931587,14.8279209 C1.03983886,14.8154367 1.31418124,14.520953 1.30169244,14.1701733 C1.1779459,10.6944363 1.44607699,7.26614063 2.15585274,5.77813585 Z" id="ring"></path>
                        <path d="M2.7419717,11.0386758 C2.76108944,10.9850463 2.7834104,10.9227428 2.80871315,10.8524911 C2.88112509,10.6514435 2.96281684,10.4272845 3.05201258,10.1858305 C3.3067229,9.49632645 3.57028563,8.80699226 3.82829028,8.16477977 C3.92561865,7.92251475 4.02048216,7.69121312 4.11239336,7.47242992 C4.42604694,6.7258165 4.69671835,6.14557895 4.90464939,5.78411442 C5.43570478,4.8609264 8.52273559,2.08283712 9.13647834,2.11827911 C9.74931629,2.15366885 10.1803722,2.92454679 9.93061537,3.43643815 C9.83613054,3.63009034 9.57796038,3.93651024 9.19433308,4.30666398 C9.0474762,4.44836301 8.88446025,4.59761441 8.70507325,4.75540518 C8.35944569,5.05942296 7.37996585,5.86331119 7.29721396,5.94034935 C7.28463121,5.9520633 7.272529,5.9642827 7.2609372,5.97697738 C7.15387595,6.09422478 7.04986428,6.22296665 6.94857884,6.36146609 C6.79983393,6.56486241 6.66358538,6.77978331 6.54142724,6.9944567 C6.46771949,7.12398627 6.41401913,7.22672654 6.38306885,7.29016096 C6.22914383,7.60563932 6.36020167,7.98612059 6.67579472,8.13998966 C6.99138777,8.29385874 7.37200737,8.16284853 7.52593238,7.84737017 C7.54573857,7.80677624 7.58719203,7.7274669 7.64667638,7.62293268 C7.74650506,7.44749976 7.8575634,7.27231435 7.97508636,7.11161144 C8.05055412,7.00841553 8.1260002,6.91503112 8.20007821,6.83390509 L8.16380145,6.87053312 C8.21121595,6.82639243 9.17133258,6.03839616 9.54505882,5.70966247 C9.73827242,5.53970968 9.91542619,5.37751422 10.0774099,5.22121962 C10.5607808,4.75482542 10.8965148,4.35634571 11.0734789,3.99364737 C11.7155691,2.67764572 10.7427043,0.937825089 9.20981148,0.849304662 C8.45997459,0.806003604 7.4125473,1.50076164 6.08090634,2.69913564 C5.07022108,3.60867431 4.07297187,4.68003304 3.80234914,5.15048427 C3.56184861,5.56856719 3.27254936,6.18873718 2.94002367,6.98027332 C2.84542006,7.20546546 2.74804952,7.44287988 2.64833479,7.6910849 C2.38538177,8.34561463 2.11772862,9.0456471 1.85919174,9.7455097 C1.76875096,9.99033405 1.68588345,10.2177192 1.61234177,10.4219035 C1.58656075,10.4934831 1.56377248,10.5570909 1.54419659,10.6120057 C1.53238093,10.6451512 1.52431041,10.6678973 1.51992916,10.6802991 C1.40301466,11.0112722 1.57664103,11.3743224 1.9077345,11.4911944 C2.23882797,11.6080664 2.60201018,11.4345032 2.71892468,11.10353 C2.7227232,11.0927757 2.73057118,11.0706568 2.7419717,11.0386758 Z" id="middle"></path>
                        <path d="M12.0782271,10.5529044 C11.6600461,10.618243 11.3563251,10.6196028 10.7068807,10.5817486 C10.5589804,10.573128 10.5045096,10.5700723 10.4263943,10.5662667 C9.33087021,10.5128953 8.55367991,10.6509351 7.50503479,11.2093906 C4.98146991,12.5533139 4.50527947,14.3013003 5.49954719,15.9933185 C6.46356434,17.633857 8.57070437,18.3092177 10.6935759,16.986805 C11.4782263,16.4980182 12.0239494,15.8696186 12.5284997,14.9988084 C12.6139253,14.8513712 12.6962451,14.7011525 12.7967343,14.5115274 C12.8198656,14.4678782 12.9862792,14.1510541 13.0333218,14.0630645 C13.5610225,13.0760405 13.8771464,12.791073 14.5797489,12.7841462 C15.2034497,12.7779973 15.6333503,13.0296914 15.7103862,13.6415353 C15.8622442,14.8476408 14.5558052,18.0017068 12.9679396,19.5776438 C11.9901091,20.5481285 10.0200533,21.4014184 8.13229783,21.519455 C5.78690104,21.6661066 3.76927569,20.7506917 2.35808964,18.5830891 C1.73687843,17.6288995 1.41401507,16.3841337 1.3880678,15.0717865 C1.36657978,13.9849769 1.56425936,12.9599926 1.82717481,12.5132161 C2.11336001,12.0268759 3.13336237,11.0065448 4.25967794,10.1376203 C5.62961019,9.08075165 6.97600755,8.36236539 7.99768927,8.20043234 C9.59316283,7.94755526 12.3636113,8.57367189 12.6614405,9.45414192 C12.8514669,10.0159151 12.6579336,10.4623284 12.0782271,10.5529044 Z M11.0260473,7.03794432 C9.90380336,6.78431911 8.57794962,6.71424758 7.78197318,6.84040711 C6.48385869,7.0461538 4.95455687,7.86213091 3.41806353,9.0474973 C2.1646336,10.0144873 1.03362564,11.1458599 0.639852863,11.8150332 C-0.322273538,13.4499904 -0.25007895,17.1014096 1.2035427,19.3341938 C2.89774251,21.9365097 5.39650805,23.0702223 8.21829357,22.8937833 C10.4330604,22.7552995 12.718935,21.7652191 13.938488,20.5548278 C15.8107198,18.6966609 17.2866166,15.133482 17.0771182,13.4695782 C16.8960411,12.031405 15.8089521,11.3949466 14.566164,11.407199 C13.2345026,11.4203275 12.5585568,12.0296538 11.8184282,13.414008 C11.7685127,13.5073712 11.6004372,13.8273592 11.5794702,13.8669243 C11.4864252,14.0425022 11.4118454,14.1785966 11.336489,14.3086553 C10.9356343,15.0004957 10.5326147,15.4645725 9.96504009,15.818135 C8.5389408,16.7065033 7.27890695,16.3026492 6.68730317,15.2958737 C6.08685646,14.2740496 6.32558236,13.3977413 8.1527184,12.4247008 C8.96059545,11.9944663 9.49503848,11.8995418 10.3593402,11.9416485 C10.4314717,11.9451626 10.4833941,11.9480754 10.6266966,11.956428 C11.3678425,11.9996271 11.7500332,11.997916 12.2909518,11.9134004 C13.814416,11.6753674 14.4056332,10.3116368 13.9663725,9.01305422 C13.6246885,8.00293702 12.5433357,7.38084892 11.0260473,7.03794432 Z" id="thumb-index"></path>
                    </g>
                    <g id="stripe_logo" fill="#000000">
                        <g id="Stripe">
                            <path d="M64,13.7133559 C64,9.17767232 61.7955556,5.59873446 57.5822222,5.59873446 C53.3511111,5.59873446 50.7911111,9.17767232 50.7911111,13.6779209 C50.7911111,19.0108927 53.8133333,21.7039548 58.1511111,21.7039548 C60.2666667,21.7039548 61.8666667,21.2255819 63.0755556,20.5523164 L63.0755556,17.0088136 C61.8666667,17.611209 60.48,17.9832768 58.72,17.9832768 C56.9955556,17.9832768 55.4666667,17.3808814 55.2711111,15.2902147 L63.9644444,15.2902147 C63.9644444,15.059887 64,14.1385763 64,13.7133559 Z M55.2177778,12.0301921 C55.2177778,10.028113 56.4444444,9.19538983 57.5644444,9.19538983 C58.6488889,9.19538983 59.8044444,10.028113 59.8044444,12.0301921 L55.2177778,12.0301921 Z" id="Shape"></path>
                            <path d="M43.9288889,5.59873446 C42.1866667,5.59873446 41.0666667,6.41374011 40.4444444,6.98070056 L40.2133333,5.88221469 L36.3022222,5.88221469 L36.3022222,26.5408362 L40.7466667,25.6018079 L40.7644444,20.5877514 C41.4044444,21.0484068 42.3466667,21.7039548 43.9111111,21.7039548 C47.0933333,21.7039548 49.9911111,19.1526328 49.9911111,13.5361808 C49.9733333,8.39810169 47.04,5.59873446 43.9288889,5.59873446 Z M42.8622222,17.8061017 C41.8133333,17.8061017 41.1911111,17.4340339 40.7644444,16.9733785 L40.7466667,10.4001808 C41.2088889,9.88637288 41.8488889,9.5320226 42.8622222,9.5320226 C44.48,9.5320226 45.6,11.339209 45.6,13.6602034 C45.6,16.0343503 44.4977778,17.8061017 42.8622222,17.8061017 Z" id="Shape"></path>
                            <polygon id="Shape" points="30.1866667 4.55340113 34.6488889 3.59665537 34.6488889 0 30.1866667 0.939028249"></polygon>
                            <rect id="Rectangle-path" x="30.1866667" y="5.8999322" width="4.46222222" height="15.5028249"></rect>
                            <path d="M25.4044444,7.21102825 L25.12,5.8999322 L21.28,5.8999322 L21.28,21.4027571 L25.7244444,21.4027571 L25.7244444,10.8962712 C26.7733333,9.5320226 28.5511111,9.7800678 29.1022222,9.97496045 L29.1022222,5.8999322 C28.5333333,5.68732203 26.4533333,5.29753672 25.4044444,7.21102825 Z" id="Shape"></path>
                            <path d="M16.5155556,2.05523164 L12.1777778,2.97654237 L12.16,17.1682712 C12.16,19.7904633 14.1333333,21.7216723 16.7644444,21.7216723 C18.2222222,21.7216723 19.2888889,21.4559096 19.8755556,21.1369944 L19.8755556,17.540339 C19.3066667,17.7706667 16.4977778,18.5856723 16.4977778,15.9634802 L16.4977778,9.67376271 L19.8755556,9.67376271 L19.8755556,5.8999322 L16.4977778,5.8999322 L16.5155556,2.05523164 Z" id="Shape"></path>
                            <path d="M4.49777778,10.4001808 C4.49777778,9.70919774 5.06666667,9.44343503 6.00888889,9.44343503 C7.36,9.44343503 9.06666667,9.85093785 10.4177778,10.5773559 L10.4177778,6.41374011 C8.94222222,5.82906215 7.48444444,5.59873446 6.00888889,5.59873446 C2.4,5.59873446 0,7.47679096 0,10.612791 C0,15.5028249 6.75555556,14.7232542 6.75555556,16.8316384 C6.75555556,17.6466441 6.04444444,17.9124068 5.04888889,17.9124068 C3.57333333,17.9124068 1.68888889,17.3100113 0.195555556,16.4950056 L0.195555556,20.711774 C1.84888889,21.4204746 3.52,21.7216723 5.04888889,21.7216723 C8.74666667,21.7216723 11.2888889,19.8967684 11.2888889,16.7253333 C11.2711111,11.4455141 4.49777778,12.3845424 4.49777778,10.4001808 Z" id="Shape"></path>
                        </g>
                    </g>
                </g>
            </g>
        </g>
    </g>
</svg>